<?xml version="1.0" encoding="utf-8"?>
<!-- Generator: Adobe Illustrator 16.0.0, SVG Export Plug-In . SVG Version: 6.00 Build 0)  -->
<!DOCTYPE svg PUBLIC "-//W3C//DTD SVG 1.1//EN" "http://www.w3.org/Graphics/SVG/1.1/DTD/svg11.dtd">
<svg version="1.1" id="レイヤー_1" xmlns="http://www.w3.org/2000/svg" xmlns:xlink="http://www.w3.org/1999/xlink" x="0px"
	 y="0px" width="200.526px" height="79.088px" viewBox="0 0 200.526 79.088" enable-background="new 0 0 200.526 79.088"
	 xml:space="preserve">
<g>
	<path fill="#666666" d="M18.881,36.182h16.101l-1.355,9.849H17.524L15.52,60.422H4.845l5.839-41.756h29.075l-1.415,10.025h-18.4
		L18.881,36.182z"/>
	<path fill="#666666" d="M53.262,47.151h-1.888l-1.827,13.271H38.872l5.838-41.756H61.4c8.611,0,14.745,4.6,13.565,14.39
		c-1.062,7.727-4.364,10.321-10.086,13.034l10.026,14.332H61.755L53.262,47.151z M58.865,38.069c3.243,0,5.131-2.418,5.425-4.837
		c0.295-2.535-0.943-4.718-4.068-4.718h-6.193l-1.355,9.555H58.865z"/>
	<path fill="#666666" d="M112.177,60.422h-11.323l-1.593-8.375H88.114l-3.716,8.375H73.074l20.407-41.756h9.612L112.177,60.422z
		 M98.081,42.669l-1.238-12.208H96.43l-4.601,12.208H98.081z"/>
	<path fill="#666666" d="M120.725,18.666h10.026l7.607,17.811l2.359,8.375l0.236-0.06l-0.118-7.194l2.654-18.932h10.497
		l-5.838,41.756h-10.675l-7.137-16.455l-2.478-8.375l-0.235,0.06l0.118,8.079l-2.3,16.691h-10.558L120.725,18.666z"/>
	<path fill="#666666" d="M182.528,18.666h13.152l-19.403,20.523l13.506,21.232h-13.27L167.785,45.5l-0.413,0.472l-2.006,14.45
		h-10.615l5.839-41.756h10.615l-2.182,15.452L182.528,18.666z"/>
</g>
<g>
</g>
<g>
</g>
<g>
</g>
<g>
</g>
<g>
</g>
<g>
</g>
<g>
</g>
<g>
</g>
<g>
</g>
<g>
</g>
<g>
</g>
<g>
</g>
<g>
</g>
<g>
</g>
<g>
</g>
</svg>
