<?xml version="1.0" encoding="utf-8"?>
<!-- Generator: Adobe Illustrator 16.0.0, SVG Export Plug-In . SVG Version: 6.00 Build 0)  -->
<!DOCTYPE svg PUBLIC "-//W3C//DTD SVG 1.1//EN" "http://www.w3.org/Graphics/SVG/1.1/DTD/svg11.dtd">
<svg version="1.1" id="レイヤー_1" xmlns="http://www.w3.org/2000/svg" xmlns:xlink="http://www.w3.org/1999/xlink" x="0px"
	 y="0px" width="325.53px" height="100.018px" viewBox="0 0 325.53 100.018" enable-background="new 0 0 325.53 100.018"
	 xml:space="preserve">
<g>
	<path fill="#FFFFFF" d="M62.654,48.52h18.75l-1.58,11.47h-18.75l-2.335,16.758H46.308l6.799-48.625h33.859l-1.648,11.676H63.89
		L62.654,48.52z"/>
	<path fill="#FFFFFF" d="M102.696,61.294h-2.197L98.37,76.747H85.938l6.799-48.625h19.437c10.027,0,17.17,5.357,15.796,16.758
		c-1.236,8.997-5.082,12.019-11.744,15.178l11.676,16.689h-15.315L102.696,61.294z M109.221,50.717c3.777,0,5.975-2.816,6.318-5.632
		c0.343-2.953-1.1-5.494-4.739-5.494h-7.211l-1.58,11.126H109.221z"/>
	<path fill="#FFFFFF" d="M171.309,76.747h-13.187l-1.854-9.752h-12.98l-4.326,9.752h-13.187l23.763-48.625h11.195L171.309,76.747z
		 M154.895,56.074l-1.442-14.216h-0.48l-5.357,14.216H154.895z"/>
	<path fill="#FFFFFF" d="M181.271,28.122h11.676l8.859,20.742l2.747,9.752l0.274-0.069l-0.137-8.379l3.09-22.046h12.226l-6.8,48.625
		h-12.431l-8.311-19.162l-2.885-9.752l-0.274,0.068l0.138,9.409l-2.679,19.437h-12.294L181.271,28.122z"/>
	<path fill="#FFFFFF" d="M253.25,28.122h15.315L245.97,52.022l15.728,24.725h-15.453l-10.164-17.376l-0.481,0.549l-2.335,16.827
		h-12.362l6.8-48.625h12.362l-2.541,17.994L253.25,28.122z"/>
</g>
<g>
</g>
<g>
</g>
<g>
</g>
<g>
</g>
<g>
</g>
<g>
</g>
<g>
</g>
<g>
</g>
<g>
</g>
<g>
</g>
<g>
</g>
<g>
</g>
<g>
</g>
<g>
</g>
<g>
</g>
</svg>
